<svg width="701" height="105" viewBox="0 0 701 105" fill="none" xmlns="http://www.w3.org/2000/svg">
<circle cx="52.5" cy="52.5" r="52" fill="#DDD6FE" stroke="#A88BFA"/>
<circle cx="201.5" cy="52.5" r="52" fill="#DDD6FE" stroke="#A88BFA"/>
<circle cx="350.5" cy="52.5" r="52" fill="#DDD6FE" stroke="#A88BFA"/>
<circle cx="499.5" cy="52.5" r="52" fill="#DDD6FE" stroke="#A88BFA"/>
<circle cx="648.5" cy="52.5" r="52" fill="#DDD6FE" stroke="#A88BFA"/>
<path d="M178.832 47.88C180.016 47.88 181.051 48.1093 181.936 48.568C182.832 49.016 183.52 49.6667 184 50.52C184.491 51.3627 184.736 52.3493 184.736 53.48C184.736 54.6107 184.491 55.592 184 56.424C183.52 57.256 182.832 57.896 181.936 58.344C181.051 58.7813 180.016 59 178.832 59H175.2V47.88H178.832ZM178.832 57.512C180.133 57.512 181.131 57.16 181.824 56.456C182.517 55.752 182.864 54.76 182.864 53.48C182.864 52.1893 182.517 51.1813 181.824 50.456C181.131 49.7307 180.133 49.368 178.832 49.368H177.024V57.512H178.832ZM194.624 54.376C194.624 54.7067 194.602 55.0053 194.56 55.272H187.824C187.877 55.976 188.138 56.5413 188.608 56.968C189.077 57.3947 189.653 57.608 190.336 57.608C191.317 57.608 192.01 57.1973 192.416 56.376H194.384C194.117 57.1867 193.632 57.8533 192.928 58.376C192.234 58.888 191.37 59.144 190.336 59.144C189.493 59.144 188.736 58.9573 188.064 58.584C187.402 58.2 186.88 57.6667 186.496 56.984C186.122 56.2907 185.936 55.4907 185.936 54.584C185.936 53.6773 186.117 52.8827 186.48 52.2C186.853 51.5067 187.37 50.9733 188.032 50.6C188.704 50.2267 189.472 50.04 190.336 50.04C191.168 50.04 191.909 50.2213 192.56 50.584C193.21 50.9467 193.717 51.4587 194.08 52.12C194.442 52.7707 194.624 53.5227 194.624 54.376ZM192.72 53.8C192.709 53.128 192.469 52.5893 192 52.184C191.53 51.7787 190.949 51.576 190.256 51.576C189.626 51.576 189.088 51.7787 188.64 52.184C188.192 52.5787 187.925 53.1173 187.84 53.8H192.72ZM199.619 59.144C198.925 59.144 198.301 59.0213 197.747 58.776C197.203 58.52 196.771 58.1787 196.451 57.752C196.131 57.3147 195.96 56.8293 195.939 56.296H197.827C197.859 56.6693 198.035 56.984 198.355 57.24C198.685 57.4853 199.096 57.608 199.587 57.608C200.099 57.608 200.493 57.512 200.771 57.32C201.059 57.1173 201.203 56.8613 201.203 56.552C201.203 56.2213 201.043 55.976 200.723 55.816C200.413 55.656 199.917 55.48 199.235 55.288C198.573 55.1067 198.035 54.9307 197.619 54.76C197.203 54.5893 196.84 54.328 196.531 53.976C196.232 53.624 196.083 53.16 196.083 52.584C196.083 52.1147 196.221 51.688 196.499 51.304C196.776 50.9093 197.171 50.6 197.683 50.376C198.205 50.152 198.803 50.04 199.475 50.04C200.477 50.04 201.283 50.296 201.891 50.808C202.509 51.3093 202.84 51.9973 202.883 52.872H201.059C201.027 52.4773 200.867 52.1627 200.579 51.928C200.291 51.6933 199.901 51.576 199.411 51.576C198.931 51.576 198.563 51.6667 198.307 51.848C198.051 52.0293 197.923 52.2693 197.923 52.568C197.923 52.8027 198.008 53 198.179 53.16C198.349 53.32 198.557 53.448 198.803 53.544C199.048 53.6293 199.411 53.7413 199.891 53.88C200.531 54.0507 201.053 54.2267 201.459 54.408C201.875 54.5787 202.232 54.8347 202.531 55.176C202.829 55.5173 202.984 55.9707 202.995 56.536C202.995 57.0373 202.856 57.4853 202.579 57.88C202.301 58.2747 201.907 58.584 201.395 58.808C200.893 59.032 200.301 59.144 199.619 59.144ZM205.894 49.016C205.563 49.016 205.286 48.904 205.062 48.68C204.838 48.456 204.726 48.1787 204.726 47.848C204.726 47.5173 204.838 47.24 205.062 47.016C205.286 46.792 205.563 46.68 205.894 46.68C206.214 46.68 206.486 46.792 206.71 47.016C206.934 47.24 207.046 47.5173 207.046 47.848C207.046 48.1787 206.934 48.456 206.71 48.68C206.486 48.904 206.214 49.016 205.894 49.016ZM206.79 50.184V59H204.966V50.184H206.79ZM212.736 50.04C213.419 50.04 214.022 50.1787 214.544 50.456C215.078 50.7227 215.494 51.0587 215.792 51.464V50.184H217.632V59.144C217.632 59.9547 217.462 60.6747 217.12 61.304C216.779 61.944 216.283 62.4453 215.632 62.808C214.992 63.1707 214.224 63.352 213.328 63.352C212.134 63.352 211.142 63.0693 210.352 62.504C209.563 61.9493 209.115 61.192 209.008 60.232H210.816C210.955 60.6907 211.248 61.0587 211.696 61.336C212.155 61.624 212.699 61.768 213.328 61.768C214.064 61.768 214.656 61.544 215.104 61.096C215.563 60.648 215.792 59.9973 215.792 59.144V57.672C215.483 58.088 215.062 58.44 214.528 58.728C214.006 59.0053 213.408 59.144 212.736 59.144C211.968 59.144 211.264 58.952 210.624 58.568C209.995 58.1733 209.494 57.6293 209.12 56.936C208.758 56.232 208.576 55.4373 208.576 54.552C208.576 53.6667 208.758 52.8827 209.12 52.2C209.494 51.5173 209.995 50.9893 210.624 50.616C211.264 50.232 211.968 50.04 212.736 50.04ZM215.792 54.584C215.792 53.976 215.664 53.448 215.408 53C215.163 52.552 214.838 52.2107 214.432 51.976C214.027 51.7413 213.59 51.624 213.12 51.624C212.651 51.624 212.214 51.7413 211.808 51.976C211.403 52.2 211.072 52.536 210.816 52.984C210.571 53.4213 210.448 53.944 210.448 54.552C210.448 55.16 210.571 55.6933 210.816 56.152C211.072 56.6107 211.403 56.9627 211.808 57.208C212.224 57.4427 212.662 57.56 213.12 57.56C213.59 57.56 214.027 57.4427 214.432 57.208C214.838 56.9733 215.163 56.632 215.408 56.184C215.664 55.7253 215.792 55.192 215.792 54.584ZM224.476 50.04C225.169 50.04 225.788 50.184 226.332 50.472C226.887 50.76 227.319 51.1867 227.628 51.752C227.937 52.3173 228.092 53 228.092 53.8V59H226.284V54.072C226.284 53.2827 226.087 52.68 225.692 52.264C225.297 51.8373 224.759 51.624 224.076 51.624C223.393 51.624 222.849 51.8373 222.444 52.264C222.049 52.68 221.852 53.2827 221.852 54.072V59H220.028V50.184H221.852V51.192C222.151 50.8293 222.529 50.5467 222.988 50.344C223.457 50.1413 223.953 50.04 224.476 50.04Z" fill="#374151"/>
<path d="M25.024 47.88V59H23.2V47.88H25.024ZM26.8108 54.552C26.8108 53.6667 26.9921 52.8827 27.3548 52.2C27.7281 51.5173 28.2294 50.9893 28.8588 50.616C29.4988 50.232 30.2081 50.04 30.9868 50.04C31.5628 50.04 32.1281 50.168 32.6828 50.424C33.2481 50.6693 33.6961 51 34.0268 51.416V47.16H35.8668V59H34.0268V57.672C33.7281 58.0987 33.3121 58.4507 32.7788 58.728C32.2561 59.0053 31.6534 59.144 30.9708 59.144C30.2028 59.144 29.4988 58.952 28.8588 58.568C28.2294 58.1733 27.7281 57.6293 27.3548 56.936C26.9921 56.232 26.8108 55.4373 26.8108 54.552ZM34.0268 54.584C34.0268 53.976 33.8988 53.448 33.6428 53C33.3974 52.552 33.0721 52.2107 32.6668 51.976C32.2614 51.7413 31.8241 51.624 31.3548 51.624C30.8854 51.624 30.4481 51.7413 30.0428 51.976C29.6374 52.2 29.3068 52.536 29.0508 52.984C28.8054 53.4213 28.6828 53.944 28.6828 54.552C28.6828 55.16 28.8054 55.6933 29.0508 56.152C29.3068 56.6107 29.6374 56.9627 30.0428 57.208C30.4588 57.4427 30.8961 57.56 31.3548 57.56C31.8241 57.56 32.2614 57.4427 32.6668 57.208C33.0721 56.9733 33.3974 56.632 33.6428 56.184C33.8988 55.7253 34.0268 55.192 34.0268 54.584ZM46.3425 54.376C46.3425 54.7067 46.3212 55.0053 46.2785 55.272H39.5425C39.5958 55.976 39.8572 56.5413 40.3265 56.968C40.7958 57.3947 41.3718 57.608 42.0545 57.608C43.0358 57.608 43.7292 57.1973 44.1345 56.376H46.1025C45.8358 57.1867 45.3505 57.8533 44.6465 58.376C43.9532 58.888 43.0892 59.144 42.0545 59.144C41.2118 59.144 40.4545 58.9573 39.7825 58.584C39.1212 58.2 38.5985 57.6667 38.2145 56.984C37.8412 56.2907 37.6545 55.4907 37.6545 54.584C37.6545 53.6773 37.8358 52.8827 38.1985 52.2C38.5718 51.5067 39.0892 50.9733 39.7505 50.6C40.4225 50.2267 41.1905 50.04 42.0545 50.04C42.8865 50.04 43.6278 50.2213 44.2785 50.584C44.9292 50.9467 45.4358 51.4587 45.7985 52.12C46.1612 52.7707 46.3425 53.5227 46.3425 54.376ZM44.4385 53.8C44.4278 53.128 44.1878 52.5893 43.7185 52.184C43.2492 51.7787 42.6678 51.576 41.9745 51.576C41.3452 51.576 40.8065 51.7787 40.3585 52.184C39.9105 52.5787 39.6438 53.1173 39.5585 53.8H44.4385ZM52.5855 50.04C53.2788 50.04 53.8975 50.184 54.4415 50.472C54.9962 50.76 55.4282 51.1867 55.7375 51.752C56.0468 52.3173 56.2015 53 56.2015 53.8V59H54.3935V54.072C54.3935 53.2827 54.1962 52.68 53.8015 52.264C53.4068 51.8373 52.8682 51.624 52.1855 51.624C51.5028 51.624 50.9588 51.8373 50.5535 52.264C50.1588 52.68 49.9615 53.2827 49.9615 54.072V59H48.1375V50.184H49.9615V51.192C50.2602 50.8293 50.6388 50.5467 51.0975 50.344C51.5668 50.1413 52.0628 50.04 52.5855 50.04ZM60.6561 51.672V56.552C60.6561 56.8827 60.7308 57.1227 60.8801 57.272C61.0401 57.4107 61.3068 57.48 61.6801 57.48H62.8001V59H61.3601C60.5388 59 59.9095 58.808 59.4721 58.424C59.0348 58.04 58.8161 57.416 58.8161 56.552V51.672H57.7761V50.184H58.8161V47.992H60.6561V50.184H62.8001V51.672H60.6561ZM65.4093 49.016C65.0786 49.016 64.8013 48.904 64.5773 48.68C64.3533 48.456 64.2413 48.1787 64.2413 47.848C64.2413 47.5173 64.3533 47.24 64.5773 47.016C64.8013 46.792 65.0786 46.68 65.4093 46.68C65.7293 46.68 66.0013 46.792 66.2253 47.016C66.4493 47.24 66.5613 47.5173 66.5613 47.848C66.5613 48.1787 66.4493 48.456 66.2253 48.68C66.0013 48.904 65.7293 49.016 65.4093 49.016ZM66.3053 50.184V59H64.4813V50.184H66.3053ZM72.396 51.672H70.764V59H68.924V51.672H67.884V50.184H68.924V49.56C68.924 48.5467 69.1907 47.8107 69.724 47.352C70.268 46.8827 71.116 46.648 72.268 46.648V48.168C71.7133 48.168 71.324 48.2747 71.1 48.488C70.876 48.6907 70.764 49.048 70.764 49.56V50.184H72.396V51.672ZM81.9485 50.184L76.5405 63.144H74.6525L76.4445 58.856L72.9725 50.184H75.0045L77.4845 56.904L80.0605 50.184H81.9485Z" fill="#374151"/>
<path d="M490.904 56.728H486.248L485.448 59H483.544L487.528 47.864H489.64L493.624 59H491.704L490.904 56.728ZM490.392 55.24L488.584 50.072L486.76 55.24H490.392ZM494.748 54.552C494.748 53.6667 494.93 52.8827 495.292 52.2C495.666 51.5173 496.167 50.9893 496.796 50.616C497.436 50.232 498.146 50.04 498.924 50.04C499.5 50.04 500.066 50.168 500.62 50.424C501.186 50.6693 501.634 51 501.964 51.416V47.16H503.804V59H501.964V57.672C501.666 58.0987 501.25 58.4507 500.716 58.728C500.194 59.0053 499.591 59.144 498.908 59.144C498.14 59.144 497.436 58.952 496.796 58.568C496.167 58.1733 495.666 57.6293 495.292 56.936C494.93 56.232 494.748 55.4373 494.748 54.552ZM501.964 54.584C501.964 53.976 501.836 53.448 501.58 53C501.335 52.552 501.01 52.2107 500.604 51.976C500.199 51.7413 499.762 51.624 499.292 51.624C498.823 51.624 498.386 51.7413 497.98 51.976C497.575 52.2 497.244 52.536 496.988 52.984C496.743 53.4213 496.62 53.944 496.62 54.552C496.62 55.16 496.743 55.6933 496.988 56.152C497.244 56.6107 497.575 56.9627 497.98 57.208C498.396 57.4427 498.834 57.56 499.292 57.56C499.762 57.56 500.199 57.4427 500.604 57.208C501.01 56.9733 501.335 56.632 501.58 56.184C501.836 55.7253 501.964 55.192 501.964 54.584ZM505.592 54.552C505.592 53.6667 505.773 52.8827 506.136 52.2C506.509 51.5173 507.011 50.9893 507.64 50.616C508.28 50.232 508.989 50.04 509.768 50.04C510.344 50.04 510.909 50.168 511.464 50.424C512.029 50.6693 512.477 51 512.808 51.416V47.16H514.648V59H512.808V57.672C512.509 58.0987 512.093 58.4507 511.56 58.728C511.037 59.0053 510.435 59.144 509.752 59.144C508.984 59.144 508.28 58.952 507.64 58.568C507.011 58.1733 506.509 57.6293 506.136 56.936C505.773 56.232 505.592 55.4373 505.592 54.552ZM512.808 54.584C512.808 53.976 512.68 53.448 512.424 53C512.179 52.552 511.853 52.2107 511.448 51.976C511.043 51.7413 510.605 51.624 510.136 51.624C509.667 51.624 509.229 51.7413 508.824 51.976C508.419 52.2 508.088 52.536 507.832 52.984C507.587 53.4213 507.464 53.944 507.464 54.552C507.464 55.16 507.587 55.6933 507.832 56.152C508.088 56.6107 508.419 56.9627 508.824 57.208C509.24 57.4427 509.677 57.56 510.136 57.56C510.605 57.56 511.043 57.4427 511.448 57.208C511.853 56.9733 512.179 56.632 512.424 56.184C512.68 55.7253 512.808 55.192 512.808 54.584Z" fill="#374151"/>
<path d="M334.904 56.728H330.248L329.448 59H327.544L331.528 47.864H333.64L337.624 59H335.704L334.904 56.728ZM334.392 55.24L332.584 50.072L330.76 55.24H334.392ZM342.908 50.04C343.591 50.04 344.194 50.1787 344.716 50.456C345.25 50.7227 345.666 51.0587 345.964 51.464V50.184H347.804V59.144C347.804 59.9547 347.634 60.6747 347.292 61.304C346.951 61.944 346.455 62.4453 345.804 62.808C345.164 63.1707 344.396 63.352 343.5 63.352C342.306 63.352 341.314 63.0693 340.524 62.504C339.735 61.9493 339.287 61.192 339.18 60.232H340.988C341.127 60.6907 341.42 61.0587 341.868 61.336C342.327 61.624 342.871 61.768 343.5 61.768C344.236 61.768 344.828 61.544 345.276 61.096C345.735 60.648 345.964 59.9973 345.964 59.144V57.672C345.655 58.088 345.234 58.44 344.7 58.728C344.178 59.0053 343.58 59.144 342.908 59.144C342.14 59.144 341.436 58.952 340.796 58.568C340.167 58.1733 339.666 57.6293 339.292 56.936C338.93 56.232 338.748 55.4373 338.748 54.552C338.748 53.6667 338.93 52.8827 339.292 52.2C339.666 51.5173 340.167 50.9893 340.796 50.616C341.436 50.232 342.14 50.04 342.908 50.04ZM345.964 54.584C345.964 53.976 345.836 53.448 345.58 53C345.335 52.552 345.01 52.2107 344.604 51.976C344.199 51.7413 343.762 51.624 343.292 51.624C342.823 51.624 342.386 51.7413 341.98 51.976C341.575 52.2 341.244 52.536 340.988 52.984C340.743 53.4213 340.62 53.944 340.62 54.552C340.62 55.16 340.743 55.6933 340.988 56.152C341.244 56.6107 341.575 56.9627 341.98 57.208C342.396 57.4427 342.834 57.56 343.292 57.56C343.762 57.56 344.199 57.4427 344.604 57.208C345.01 56.9733 345.335 56.632 345.58 56.184C345.836 55.7253 345.964 55.192 345.964 54.584ZM352.024 51.464C352.291 51.016 352.643 50.6693 353.08 50.424C353.528 50.168 354.056 50.04 354.664 50.04V51.928H354.2C353.485 51.928 352.941 52.1093 352.568 52.472C352.205 52.8347 352.024 53.464 352.024 54.36V59H350.2V50.184H352.024V51.464ZM364.421 54.376C364.421 54.7067 364.399 55.0053 364.357 55.272H357.621C357.674 55.976 357.935 56.5413 358.405 56.968C358.874 57.3947 359.45 57.608 360.133 57.608C361.114 57.608 361.807 57.1973 362.213 56.376H364.181C363.914 57.1867 363.429 57.8533 362.725 58.376C362.031 58.888 361.167 59.144 360.133 59.144C359.29 59.144 358.533 58.9573 357.861 58.584C357.199 58.2 356.677 57.6667 356.293 56.984C355.919 56.2907 355.733 55.4907 355.733 54.584C355.733 53.6773 355.914 52.8827 356.277 52.2C356.65 51.5067 357.167 50.9733 357.829 50.6C358.501 50.2267 359.269 50.04 360.133 50.04C360.965 50.04 361.706 50.2213 362.357 50.584C363.007 50.9467 363.514 51.4587 363.877 52.12C364.239 52.7707 364.421 53.5227 364.421 54.376ZM362.517 53.8C362.506 53.128 362.266 52.5893 361.797 52.184C361.327 51.7787 360.746 51.576 360.053 51.576C359.423 51.576 358.885 51.7787 358.437 52.184C357.989 52.5787 357.722 53.1173 357.637 53.8H362.517ZM374.296 54.376C374.296 54.7067 374.274 55.0053 374.232 55.272H367.496C367.549 55.976 367.81 56.5413 368.28 56.968C368.749 57.3947 369.325 57.608 370.008 57.608C370.989 57.608 371.682 57.1973 372.088 56.376H374.056C373.789 57.1867 373.304 57.8533 372.6 58.376C371.906 58.888 371.042 59.144 370.008 59.144C369.165 59.144 368.408 58.9573 367.736 58.584C367.074 58.2 366.552 57.6667 366.168 56.984C365.794 56.2907 365.608 55.4907 365.608 54.584C365.608 53.6773 365.789 52.8827 366.152 52.2C366.525 51.5067 367.042 50.9733 367.704 50.6C368.376 50.2267 369.144 50.04 370.008 50.04C370.84 50.04 371.581 50.2213 372.232 50.584C372.882 50.9467 373.389 51.4587 373.752 52.12C374.114 52.7707 374.296 53.5227 374.296 54.376ZM372.392 53.8C372.381 53.128 372.141 52.5893 371.672 52.184C371.202 51.7787 370.621 51.576 369.928 51.576C369.298 51.576 368.76 51.7787 368.312 52.184C367.864 52.5787 367.597 53.1173 367.512 53.8H372.392Z" fill="#374151"/>
<path d="M607.024 47.88V59H605.2V47.88H607.024ZM620.091 50.04C620.784 50.04 621.403 50.184 621.947 50.472C622.501 50.76 622.933 51.1867 623.243 51.752C623.563 52.3173 623.723 53 623.723 53.8V59H621.915V54.072C621.915 53.2827 621.717 52.68 621.323 52.264C620.928 51.8373 620.389 51.624 619.707 51.624C619.024 51.624 618.48 51.8373 618.075 52.264C617.68 52.68 617.483 53.2827 617.483 54.072V59H615.675V54.072C615.675 53.2827 615.477 52.68 615.083 52.264C614.688 51.8373 614.149 51.624 613.467 51.624C612.784 51.624 612.24 51.8373 611.835 52.264C611.44 52.68 611.243 53.2827 611.243 54.072V59H609.419V50.184H611.243V51.192C611.541 50.8293 611.92 50.5467 612.379 50.344C612.837 50.1413 613.328 50.04 613.851 50.04C614.555 50.04 615.184 50.1893 615.739 50.488C616.293 50.7867 616.72 51.2187 617.019 51.784C617.285 51.2507 617.701 50.8293 618.267 50.52C618.832 50.2 619.44 50.04 620.091 50.04ZM627.868 51.48C628.177 51.0747 628.598 50.7333 629.132 50.456C629.665 50.1787 630.268 50.04 630.94 50.04C631.708 50.04 632.406 50.232 633.036 50.616C633.676 50.9893 634.177 51.5173 634.54 52.2C634.902 52.8827 635.084 53.6667 635.084 54.552C635.084 55.4373 634.902 56.232 634.54 56.936C634.177 57.6293 633.676 58.1733 633.036 58.568C632.406 58.952 631.708 59.144 630.94 59.144C630.268 59.144 629.67 59.0107 629.148 58.744C628.625 58.4667 628.198 58.1253 627.868 57.72V63.192H626.044V50.184H627.868V51.48ZM633.228 54.552C633.228 53.944 633.1 53.4213 632.844 52.984C632.598 52.536 632.268 52.2 631.852 51.976C631.446 51.7413 631.009 51.624 630.54 51.624C630.081 51.624 629.644 51.7413 629.228 51.976C628.822 52.2107 628.492 52.552 628.236 53C627.99 53.448 627.868 53.976 627.868 54.584C627.868 55.192 627.99 55.7253 628.236 56.184C628.492 56.632 628.822 56.9733 629.228 57.208C629.644 57.4427 630.081 57.56 630.54 57.56C631.009 57.56 631.446 57.4427 631.852 57.208C632.268 56.9627 632.598 56.6107 632.844 56.152C633.1 55.6933 633.228 55.16 633.228 54.552ZM638.712 47.16V59H636.888V47.16H638.712ZM649.186 54.376C649.186 54.7067 649.165 55.0053 649.122 55.272H642.386C642.44 55.976 642.701 56.5413 643.17 56.968C643.64 57.3947 644.216 57.608 644.898 57.608C645.88 57.608 646.573 57.1973 646.978 56.376H648.946C648.68 57.1867 648.194 57.8533 647.49 58.376C646.797 58.888 645.933 59.144 644.898 59.144C644.056 59.144 643.298 58.9573 642.626 58.584C641.965 58.2 641.442 57.6667 641.058 56.984C640.685 56.2907 640.498 55.4907 640.498 54.584C640.498 53.6773 640.68 52.8827 641.042 52.2C641.416 51.5067 641.933 50.9733 642.594 50.6C643.266 50.2267 644.034 50.04 644.898 50.04C645.73 50.04 646.472 50.2213 647.122 50.584C647.773 50.9467 648.28 51.4587 648.642 52.12C649.005 52.7707 649.186 53.5227 649.186 54.376ZM647.282 53.8C647.272 53.128 647.032 52.5893 646.562 52.184C646.093 51.7787 645.512 51.576 644.818 51.576C644.189 51.576 643.65 51.7787 643.202 52.184C642.754 52.5787 642.488 53.1173 642.402 53.8H647.282ZM661.653 50.04C662.347 50.04 662.965 50.184 663.509 50.472C664.064 50.76 664.496 51.1867 664.805 51.752C665.125 52.3173 665.285 53 665.285 53.8V59H663.477V54.072C663.477 53.2827 663.28 52.68 662.885 52.264C662.491 51.8373 661.952 51.624 661.269 51.624C660.587 51.624 660.043 51.8373 659.637 52.264C659.243 52.68 659.045 53.2827 659.045 54.072V59H657.237V54.072C657.237 53.2827 657.04 52.68 656.645 52.264C656.251 51.8373 655.712 51.624 655.029 51.624C654.347 51.624 653.803 51.8373 653.397 52.264C653.003 52.68 652.805 53.2827 652.805 54.072V59H650.981V50.184H652.805V51.192C653.104 50.8293 653.483 50.5467 653.941 50.344C654.4 50.1413 654.891 50.04 655.413 50.04C656.117 50.04 656.747 50.1893 657.301 50.488C657.856 50.7867 658.283 51.2187 658.581 51.784C658.848 51.2507 659.264 50.8293 659.829 50.52C660.395 50.2 661.003 50.04 661.653 50.04ZM675.686 54.376C675.686 54.7067 675.665 55.0053 675.622 55.272H668.886C668.94 55.976 669.201 56.5413 669.67 56.968C670.14 57.3947 670.716 57.608 671.398 57.608C672.38 57.608 673.073 57.1973 673.478 56.376H675.446C675.18 57.1867 674.694 57.8533 673.99 58.376C673.297 58.888 672.433 59.144 671.398 59.144C670.556 59.144 669.798 58.9573 669.126 58.584C668.465 58.2 667.942 57.6667 667.558 56.984C667.185 56.2907 666.998 55.4907 666.998 54.584C666.998 53.6773 667.18 52.8827 667.542 52.2C667.916 51.5067 668.433 50.9733 669.094 50.6C669.766 50.2267 670.534 50.04 671.398 50.04C672.23 50.04 672.972 50.2213 673.622 50.584C674.273 50.9467 674.78 51.4587 675.142 52.12C675.505 52.7707 675.686 53.5227 675.686 54.376ZM673.782 53.8C673.772 53.128 673.532 52.5893 673.062 52.184C672.593 51.7787 672.012 51.576 671.318 51.576C670.689 51.576 670.15 51.7787 669.702 52.184C669.254 52.5787 668.988 53.1173 668.902 53.8H673.782ZM681.929 50.04C682.623 50.04 683.241 50.184 683.785 50.472C684.34 50.76 684.772 51.1867 685.081 51.752C685.391 52.3173 685.545 53 685.545 53.8V59H683.737V54.072C683.737 53.2827 683.54 52.68 683.145 52.264C682.751 51.8373 682.212 51.624 681.529 51.624C680.847 51.624 680.303 51.8373 679.897 52.264C679.503 52.68 679.305 53.2827 679.305 54.072V59H677.481V50.184H679.305V51.192C679.604 50.8293 679.983 50.5467 680.441 50.344C680.911 50.1413 681.407 50.04 681.929 50.04ZM690 51.672V56.552C690 56.8827 690.075 57.1227 690.224 57.272C690.384 57.4107 690.651 57.48 691.024 57.48H692.144V59H690.704C689.883 59 689.253 58.808 688.816 58.424C688.379 58.04 688.16 57.416 688.16 56.552V51.672H687.12V50.184H688.16V47.992H690V50.184H692.144V51.672H690Z" fill="#374151"/>
</svg>
